<svg width="512" height="512" xmlns="http://www.w3.org/2000/svg" version="1.1" xml:space="preserve">
 <g>
  <title>Layer 1</title>
  <g id="svg_1">
   <path d="m298.789,313.693c-12.738,8.492 -27.534,12.981 -42.789,12.981c-15.254,0 -30.05,-4.489 -42.788,-12.981l-209.803,-139.873a76.269,76.269 0 0 1 -3.409,-2.417l0,229.197c0,26.278 21.325,47.133 47.133,47.133l417.733,0c26.278,0 47.133,-21.325 47.133,-47.133l0,-229.198a75.21,75.21 0 0 1 -3.416,2.422l-209.794,139.869z" fill="#666666" data-original="#000000" id="svg_2"/>
   <path d="m20.05,148.858l209.803,139.874c7.942,5.295 17.044,7.942 26.146,7.942c9.103,0 18.206,-2.648 26.148,-7.942l209.803,-139.874c12.555,-8.365 20.05,-22.365 20.05,-37.475c0,-25.981 -21.137,-47.117 -47.117,-47.117l-417.766,0c-25.98,0.001 -47.117,21.137 -47.117,47.142a44.912,44.912 0 0 0 20.05,37.45z" fill="#666666" data-original="#000000" id="svg_3"/>
  </g>
 </g>

</svg>