<svg width="512" height="512" xmlns="http://www.w3.org/2000/svg" xml:space="preserve" version="1.1">

 <g>
  <title>Layer 1</title>
  <g id="svg_1">
   <path id="svg_2" data-original="#000000" fill="#666666" d="m463.748,48.251c-64.336,-64.336 -169.013,-64.335 -233.349,0.001c-43.945,43.945 -59.209,108.706 -40.181,167.461l-185.822,185.823a14.988,14.988 0 0 0 -4.395,10.606l0,84.858c0,8.291 6.709,15 15,15l84.858,0c3.984,0 7.793,-1.582 10.605,-4.395l21.211,-21.226a15.002,15.002 0 0 0 4.292,-12.334l-2.637,-22.793l31.582,-2.974a14.975,14.975 0 0 0 13.521,-13.521l2.974,-31.582l22.793,2.651c4.233,0.571 8.496,-0.85 11.704,-3.691a15.04,15.04 0 0 0 5.024,-11.206l0,-27.929l27.422,0c3.984,0 7.793,-1.582 10.605,-4.395l38.467,-37.958c58.74,19.043 122.381,4.929 166.326,-39.046c64.336,-64.335 64.336,-169.014 0,-233.35zm-42.435,106.07c-17.549,17.549 -46.084,17.549 -63.633,0s-17.549,-46.084 0,-63.633s46.084,-17.549 63.633,0s17.548,46.084 0,63.633z"/>
  </g>
 </g>
</svg>